<svg width="11" height="12" viewBox="0 0 11 12" fill="none" xmlns="http://www.w3.org/2000/svg">
<path fill-rule="evenodd" clip-rule="evenodd" d="M0.0353645 4.03335C0.0908639 3.23972 0.11779 2.8429 0.451778 2.23033C0.673395 1.82385 1.32303 1.17422 1.7295 0.952602C2.34208 0.618614 2.7389 0.590864 3.53253 0.535364C3.84917 0.513221 4.17441 0.5 4.49965 0.5C4.8249 0.5 5.15014 0.513221 5.46678 0.535364C6.26041 0.590864 6.65723 0.618614 7.26981 0.952602C7.67628 1.17422 8.32591 1.82385 8.54753 2.23033C8.88152 2.8429 8.90927 3.23924 8.96477 4.03287C8.98691 4.34952 9.00013 4.67476 9.00013 5C9.00013 5.32524 8.98691 5.65048 8.96477 5.96713C8.90927 6.76076 8.88152 7.15806 8.54753 7.77063C8.52447 7.81292 8.49678 7.85785 8.46521 7.90464L10.7803 10.2198C10.9262 10.3657 10.9995 10.5568 11 10.748C11.0005 10.9407 10.9273 11.1335 10.7803 11.2805C10.6304 11.4304 10.4328 11.5035 10.2364 11.5C10.049 11.4966 9.86266 11.4234 9.71967 11.2805L7.4047 8.96545C7.35758 8.99726 7.31236 9.02515 7.26981 9.04836C6.65723 9.38234 6.26042 9.40914 5.46679 9.46464C5.15014 9.48678 4.8249 9.5 4.49965 9.5C4.17441 9.5 3.84917 9.48678 3.53253 9.46464C2.73889 9.40914 2.34208 9.38234 1.7295 9.04836C1.32303 8.82674 0.673395 8.1771 0.451778 7.77063C0.11779 7.15805 0.0908638 6.76124 0.0353644 5.9676C0.0132214 5.65096 0 5.32572 0 5.00048C0 4.67524 0.0132214 4.34999 0.0353645 4.03335ZM3.63717 2.03171C3.92451 2.01162 4.21446 2 4.49965 2C4.78485 2 5.07479 2.01162 5.36214 2.03171C6.1477 2.08664 6.25111 2.10565 6.55177 2.26958C6.55978 2.27474 6.59864 2.29992 6.66573 2.35426C6.74153 2.41564 6.82898 2.49446 6.91733 2.5828C7.00567 2.67115 7.0845 2.75861 7.14588 2.8344C7.20022 2.9015 7.2248 2.93964 7.22996 2.94765C7.39388 3.2483 7.41349 3.35196 7.46842 4.13751C7.48852 4.42486 7.50013 4.71481 7.50013 5C7.50013 5.28519 7.48852 5.57514 7.46842 5.86249C7.41349 6.64804 7.39448 6.75194 7.23056 7.05259C7.2254 7.0606 7.20022 7.09946 7.14588 7.16656C7.0845 7.24235 7.00567 7.32981 6.91733 7.41815C6.82899 7.5065 6.74153 7.58532 6.66573 7.6467C6.59863 7.70104 6.5605 7.72562 6.55249 7.73078C6.25183 7.8947 6.1477 7.91431 5.36214 7.96925C5.0748 7.98934 4.78485 8.00096 4.49965 8.00096C4.21446 8.00096 3.92451 7.98934 3.63717 7.96925C2.85161 7.91431 2.7482 7.8953 2.44754 7.73138C2.43953 7.72622 2.40067 7.70104 2.33358 7.6467C2.25778 7.58532 2.17032 7.5065 2.08198 7.41815C1.99363 7.32981 1.91481 7.24235 1.85343 7.16656C1.7991 7.09946 1.77452 7.06133 1.76935 7.05331C1.60543 6.75266 1.58664 6.64852 1.53171 5.86296C1.51162 5.57562 1.5 5.28567 1.5 5.00048C1.5 4.71528 1.51162 4.42534 1.53171 4.13799C1.58664 3.35244 1.60483 3.24902 1.76875 2.94837C1.77391 2.94036 1.79909 2.9015 1.85343 2.8344C1.91481 2.75861 1.99364 2.67115 2.08198 2.5828C2.17032 2.49446 2.25778 2.41564 2.33358 2.35426C2.40067 2.29992 2.43881 2.27534 2.44682 2.27018C2.74748 2.10625 2.85161 2.08664 3.63717 2.03171Z" fill="#1D2023"/>
</svg>
